<?xml version="1.0" encoding="utf-8"?>
<!-- Generator: Adobe Illustrator 25.3.1, SVG Export Plug-In . SVG Version: 6.00 Build 0)  -->
<svg version="1.1" id="Layer_1" xmlns="http://www.w3.org/2000/svg" xmlns:xlink="http://www.w3.org/1999/xlink" x="0px" y="0px"
	 viewBox="0 0 553.8 289.9" style="enable-background:new 0 0 553.8 289.9;" xml:space="preserve">
<style type="text/css">
	.st0{fill:#FFFFFF;}
</style>
<g>
	<path class="st0" d="M263,289.8c-0.6-0.7-76.1-94-113.4-139.8c-2.3-2.9-4.8-5.6-7.9-9.3v149.3H93.8C93.9,288.7,94,150,94,83.3
		c0.1-0.9,0-1.8,0-2.7c-11-13.2-24.2-28.7-35-42c-3.7-4.5-7.4-8.9-11.1-13.4v264H0L0.1,0c28.9,0,59.1,0,89.1,0
		c5.9,7.9,12.5,15.5,18.8,23.2c48.7,59.9,97.4,119.9,146.1,179.8c2.9,3.5,5.8,7,9,10.8l29.9-36.6L149.2,0c20,0,42.3,0,60.7,0
		c0.1,0,71,86.9,104.7,128.2c2.9,3.6,5.9,7.1,9.1,11c1.5-1.8,2.7-3.1,3.8-4.5C363,91.1,437.1,0,437.2,0c16.4,0,57.2,0,60.9,0
		c-2.5,3.1-123.3,152-181.7,223.8C298.6,245.8,280.7,267.7,263,289.8z"/>
	<path class="st0" d="M323.9,289.9c0.7-1.6,123-152,181.4-223.6c0-0.1,0-46.3,0-66.2l48.4,0.1v289.8h-48.4c0,0,0.2-147.8,0-148.6
		L453.8,204l-69.6,85.9H323.9z"/>
</g>
</svg>
