<svg id="Layer_1" data-name="Layer 1" xmlns="http://www.w3.org/2000/svg" viewBox="0 0 537 289.93"><path d="M263,289.92c-.6-.69-.88-1.63-1.45-2.33q-56-68.85-112-137.66c-2.33-2.87-4.77-5.64-7.87-9.3V289.25H93.83c.1-1.15.29-2.3.29-3.45,0-66.74-.1-135.77-.1-202.51A20,20,0,0,0,94,80.61c-11-13.19-24.16-28.73-35-42-3.66-4.5-7.4-8.95-11.09-13.43v264H0V.18C29.79.18,59.58.25,89.37.1,95.32,8,101.71,15.54,108,23.21Q181,113.12,254.13,203c2.87,3.52,5.83,7,9,10.76L293,177.11,149.09.28c19.81,0,42.58-.09,61-.09.11,0,1.1,1.2,3.55,3.91Q264,66.24,314.57,128.25c2.9,3.58,5.86,7.12,9.09,11,1.53-1.8,2.71-3.14,3.84-4.52q53.29-65.47,106.55-131c3.23-4,3-3.68,3.13-3.68,16.37,0,57.08.34,60.83.56-2.52,3.06-4.5,5.46-6.47,7.87Q404,116.13,316.45,223.82,289.65,256.81,263,289.92Z" transform="translate(0 0.01)"/><path d="M324.4,289.25a27.88,27.88,0,0,1,2.49-4.63c58.27-71.68,119.94-146.87,178.3-218.47,0-.08.21-2.44.18-6.36-.18-19.58-.08-39.15-.08-59.12H537V289.25H505.06c.08-.82.22-1.64.22-2.47V145.4a27.44,27.44,0,0,0-.64-3.82L453.83,204,384.3,289.25Z" transform="translate(0 0.01)"/></svg>