<svg id="Layer_1" data-name="Layer 1" xmlns="http://www.w3.org/2000/svg" viewBox="0 0 632.89 291.26"><path d="M263,289.93c-.6-.69-.88-1.63-1.45-2.33q-56-68.85-112-137.66c-2.33-2.87-4.77-5.64-7.87-9.3V289.26H93.83c.1-1.15.29-2.3.29-3.45C94.12,219.07,94,150,94,83.3a20,20,0,0,0,0-2.68c-11-13.19-24.16-28.73-35-42-3.66-4.5-7.4-8.95-11.09-13.43v264H0V.19C29.79.19,59.58.26,89.37.11,95.32,8,101.71,15.55,108,23.22Q181,113.13,254.13,203c2.87,3.52,5.83,7,9,10.76L293,177.12,149.09.29c19.81,0,42.58-.09,61-.09.11,0,1.1,1.2,3.55,3.91Q264,66.26,314.57,128.26c2.9,3.58,5.86,7.12,9.09,11,1.53-1.8,2.71-3.14,3.84-4.52q53.29-65.48,106.55-131c3.23-4,3-3.68,3.13-3.68,16.37,0,57.73-.27,61.48,0-2.52,3.06-5.15,6.07-7.12,8.48L316.45,223.83Q289.65,256.82,263,289.93Z" transform="translate(0 1.33)" style="fill:#fff"/><path d="M324.4,289.26a27.88,27.88,0,0,1,2.49-4.63C385.16,213,446.83,137.76,505.19,66.16c0-.08.21-2.44.18-6.36-.18-19.58-.08-39.15-.08-59.12H537L536.93,289l-31.63-.12a18.41,18.41,0,0,0,0-2.1V145.41a27.44,27.44,0,0,0-.64-3.82L453.83,204,384.3,289.26Z" transform="translate(0 1.33)" style="fill:#fff"/><rect x="585.16" y="1" width="47.73" height="288.83" style="fill:#fff"/><rect x="504.16" width="47.73" height="289.93" style="fill:#fff"/><rect x="544.58" y="200.77" width="47.73" height="128.68" transform="translate(303.33 834.9) rotate(-90)" style="fill:#fff"/><rect x="41.36" y="200.99" width="47.73" height="128.68" transform="translate(-200.11 331.89) rotate(-90)" style="fill:#fff"/></svg>